<svg viewBox="0 0 23 24" fill="none" xmlns="http://www.w3.org/2000/svg">
<path d="M19.6481 0L16.6733 2.97476C12.7473 -0.309591 6.8741 -0.112171 3.18593 3.576C1.29698 5.46495 0.256042 7.98205 0.256042 10.6517C0.256042 13.0252 1.07713 15.2686 2.5847 17.0634L1.52581 18.1223L2.79558 19.392L20.9134 1.26977L19.6436 0H19.6481ZM17.6425 18.0819H22.744L19.8365 9.79921L18.145 10.3915L20.2134 16.2872H17.6425V18.0819ZM12.8281 10.9434C12.8281 11.9708 13.6627 12.8054 14.6901 12.8054C15.7176 12.8054 16.5522 11.9708 16.5522 10.9434C16.5522 9.91587 15.7176 9.08132 14.6901 9.08132C13.6627 9.08132 12.8281 9.91587 12.8281 10.9434ZM16.3278 22.2053C14.5421 22.2053 13.2095 21.3662 13.2095 20.6169H11.4148C11.4148 22.5149 13.5729 24 16.3278 24C19.0827 24 21.2409 22.5149 21.2409 20.6169H19.4462C19.4462 21.3662 18.1136 22.2053 16.3278 22.2053Z" fill="currentColor"/>
</svg>
