<svg viewBox="0 0 39 24" fill="none" xmlns="http://www.w3.org/2000/svg">
<path d="M37.1465 17.1025C37.7318 16.3288 38.1829 15.5185 38.4939 14.6655C38.5182 14.6229 38.5365 14.5802 38.5426 14.5315C38.8109 13.7455 38.9572 12.9291 38.9633 12.0944C39.006 5.49615 30.3122 0.0676457 19.5884 0.000627157C19.5884 0.000627157 19.5823 0.000627157 19.5762 0.000627157C19.5762 0.000627157 19.5701 0.000627157 19.564 0.000627157C8.84008 -0.0663914 0.0792972 5.24635 0.0366211 11.8446C0.0366211 12.6793 0.16465 13.4957 0.426803 14.2878C0.432899 14.3365 0.451189 14.3792 0.475575 14.4218C2.35332 19.832 10.1204 23.9384 19.4237 23.9994C27.1542 24.0481 33.8605 21.2943 37.0246 17.2731C37.0794 17.2305 37.1221 17.1757 37.1465 17.1086V17.1025ZM1.20107 14.2512C1.34739 14.0014 1.70099 13.447 2.35942 12.6367C2.85934 13.8796 3.87137 15.0554 4.44445 15.6586C3.84698 15.8657 2.90811 16.1704 2.27407 16.28C1.80463 15.622 1.44493 14.9458 1.19497 14.2451L1.20107 14.2512ZM36.3783 11.4182C35.8906 10.8698 35.3541 10.3154 34.7749 9.75487C34.7323 9.04813 34.5494 8.40232 34.2933 7.83571C35.1224 7.72604 35.8601 7.77478 36.5734 7.82352C36.6161 8.76787 36.6222 10.4738 36.3783 11.4182ZM33.4825 15.6525C32.5619 15.7195 31.2999 15.683 30.6415 15.6586C30.7634 15.1651 30.9646 14.4766 31.1841 14.0806C31.5072 13.8491 32.19 13.3373 32.6777 12.856C33.2508 13.977 33.5251 14.9275 33.4825 15.6525ZM5.46258 15.4697C5.426 14.7447 5.71254 13.8004 6.30391 12.6793C6.78554 13.1667 7.45616 13.6846 7.77928 13.9222C7.99266 14.3182 8.18775 15.0128 8.30359 15.5063C7.64516 15.5246 6.37707 15.5428 5.46258 15.4636V15.4697ZM4.98705 9.65739C5.03582 8.93237 5.25529 8.28656 5.55403 7.72604C6.10882 7.73213 7.3891 7.81743 8.48039 8.31093C7.98047 8.88972 6.99892 10.0839 6.16369 11.4486C5.71864 11.0892 5.23701 10.2301 4.99314 9.66348L4.98705 9.65739ZM19.6371 0.938887C20.1188 1.45066 21.2222 2.78494 21.8929 4.83206C20.7894 5.05748 19.9115 5.52661 19.5396 5.75204C19.1677 5.52052 18.2959 5.0392 17.1985 4.80159C17.9423 2.64481 19.2104 1.341 19.6432 0.938887H19.6371ZM13.8698 5.97137C14.0466 5.87998 14.9854 5.42304 16.095 5.41694C15.8207 5.98356 15.4793 6.94009 15.5402 8.10378C15.0159 7.92709 14.1807 7.70776 13.1626 7.66511C13.2967 7.03758 13.5527 6.25772 13.8698 5.97137ZM25.2033 6.04448C25.5142 6.33693 25.7581 7.12287 25.8861 7.75041C24.868 7.78087 24.0328 7.98802 23.5024 8.15861C23.5816 6.99493 23.2463 6.0323 22.9842 5.46569C24.0815 5.48396 25.0204 5.95309 25.2033 6.04448ZM29.6355 8.96893C29.6538 9.77924 29.5014 10.5896 29.1722 11.3938C28.4162 10.7967 27.7517 10.4555 27.4347 10.3093C27.3127 9.59037 27.075 8.92019 26.8982 8.48152C27.8553 8.48761 29.0624 8.60337 29.6172 8.6643C29.6233 8.76787 29.6355 8.86535 29.6355 8.96893ZM22.3623 17.5107C22.0087 17.6692 20.9845 18.0774 19.8383 18.1261L19.8566 15.488C20.3931 15.6403 21.3137 15.8414 22.4598 15.8475C22.5452 15.8475 22.6366 15.8475 22.7281 15.8475C22.6427 16.3105 22.5025 17.0355 22.3562 17.5107H22.3623ZM12.9553 8.40232C14.0344 8.42059 14.9062 8.67039 15.3939 8.84708C14.8147 9.62693 14.2721 10.4068 13.7966 11.1318C13.2052 10.7419 12.6504 10.4312 12.3395 10.2667C12.498 9.47461 12.7968 8.7435 12.9553 8.40232ZM23.0695 13.4592C23.0695 13.843 23.0451 14.5802 22.9049 15.0981C21.7709 15.1407 20.826 14.9701 20.2468 14.8239C20.7772 14.2512 21.332 13.3312 21.8258 12.3869C22.3257 12.7463 22.7891 13.1241 23.0695 13.4653V13.4592ZM16.0523 15.0493C15.9182 14.5315 15.8999 13.7882 15.9121 13.4104C16.1987 13.0753 16.662 12.6976 17.168 12.3503C17.6496 13.3069 18.1861 14.2268 18.7165 14.8117C18.1374 14.9519 17.1924 15.1103 16.0584 15.0554L16.0523 15.0493ZM19.4786 14.5315C18.9665 14.1111 18.3507 13.0692 17.7899 11.9299C18.5093 11.473 19.1982 11.0952 19.503 10.9368C19.8017 11.1013 20.4907 11.4913 21.204 11.9543C20.6248 13.0814 19.9968 14.1172 19.4786 14.5315ZM19.8932 10.3032L19.9054 8.78006C20.765 8.78615 21.9173 8.84098 22.5635 8.96893C22.3135 9.58428 21.9538 10.4251 21.5393 11.2841C20.8564 10.8394 20.2102 10.4738 19.8932 10.3032ZM19.1189 10.3032C18.8019 10.4738 18.1557 10.8272 17.4607 11.2658C17.0583 10.4068 16.7047 9.55991 16.4669 8.93847C17.1131 8.81661 18.2654 8.78006 19.125 8.78006L19.1128 10.3032H19.1189ZM15.8694 9.45024C16.0889 9.99858 16.4303 10.8211 16.8327 11.6801C16.3694 12.003 15.9243 12.3442 15.5829 12.6793C15.272 12.2894 14.8513 11.9056 14.4002 11.5705C14.8452 10.9003 15.339 10.1814 15.8694 9.45024ZM15.1622 13.38C15.1622 13.6541 15.1561 14.3792 15.2781 15.0128C14.6075 14.9701 13.4064 14.8787 12.4858 14.6838C12.7663 14.1842 13.2906 13.2825 13.9917 12.1919C14.4916 12.5697 14.9306 12.9839 15.1622 13.38ZM16.5584 17.4742C16.4242 16.9929 16.2901 16.2679 16.2108 15.8048C16.2962 15.8048 16.3877 15.8048 16.473 15.8109C17.6253 15.817 18.5519 15.6281 19.0884 15.4819L19.0762 18.12C17.924 18.053 16.9181 17.6387 16.5645 17.4742H16.5584ZM23.8072 13.4348C24.045 13.0449 24.49 12.6367 24.9899 12.265C25.6727 13.3617 26.1849 14.2756 26.4592 14.7752C25.5447 14.958 24.3437 15.0372 23.667 15.0676C23.795 14.434 23.8072 13.709 23.8011 13.4348H23.8072ZM23.3987 12.7281C23.0634 12.3869 22.6245 12.0396 22.1611 11.7167C22.5757 10.8637 22.9293 10.0473 23.1549 9.49899C23.6792 10.2301 24.1669 10.9551 24.5997 11.6375C24.1486 11.9726 23.7157 12.3442 23.4048 12.7342L23.3987 12.7281ZM23.6426 8.90191C24.1303 8.73132 25.0082 8.4998 26.0873 8.49371C26.2397 8.84098 26.5324 9.57819 26.6787 10.3641C26.3678 10.5225 25.8069 10.8211 25.2094 11.2049C24.74 10.4738 24.2157 9.68785 23.6426 8.89582V8.90191ZM22.1794 5.5327C22.405 5.947 22.8683 6.98274 22.7464 8.25609C21.9173 8.07941 20.5699 8.04285 19.9054 8.03676L19.9176 6.39176C20.259 6.18461 21.1247 5.72157 22.1794 5.5327ZM19.1311 8.03067C18.4605 8.03067 17.1192 8.04895 16.284 8.20735C16.1743 6.934 16.6559 5.90435 16.8876 5.49615C17.9423 5.6972 18.8019 6.17243 19.1433 6.37958L19.1311 8.02458V8.03067ZM11.5835 10.2057C11.2604 10.3459 10.5959 10.6809 9.82773 11.2719C9.51071 10.4616 9.36439 9.6513 9.39487 8.84098C9.39487 8.73741 9.40707 8.63383 9.41926 8.53635C9.98015 8.48761 11.1873 8.38404 12.1383 8.39013C11.9554 8.8288 11.7116 9.49289 11.5774 10.2118L11.5835 10.2057ZM8.65109 9.24919C8.67548 10.0961 8.87057 10.9368 9.22417 11.7715C8.8096 12.1493 8.38284 12.6062 7.98047 13.1424C7.46835 12.7524 6.95015 12.3016 6.6819 11.9969C6.8465 11.7289 7.01721 11.4486 7.2123 11.1623C7.71831 10.4068 8.24872 9.7305 8.65109 9.2431V9.24919ZM9.04737 15.4454C8.94373 15.0006 8.74864 14.239 8.49868 13.7029C8.84009 13.2277 9.20588 12.8194 9.57168 12.4722C9.99844 13.2642 10.5776 14.0441 11.3031 14.8178C10.5227 15.1529 9.55948 15.354 9.05346 15.4454H9.04737ZM10.1448 11.9726C10.9312 11.345 11.614 11.0039 11.9006 10.882C12.2664 11.0709 12.8212 11.3816 13.382 11.7532C12.6687 12.8621 12.1322 13.7882 11.8396 14.306C11.1141 13.5323 10.5471 12.7524 10.1448 11.9726ZM15.4488 15.7622C15.5219 16.2252 15.6805 17.1147 15.8512 17.6996C15.6561 17.9555 14.9184 18.2297 14.2295 18.3576C13.4674 17.4742 12.8577 16.2069 12.5346 15.4454C13.5954 15.6464 14.8818 15.7317 15.4488 15.7622ZM16.3877 18.2114C16.8815 18.4246 17.8935 18.8085 19.0641 18.8633L19.0458 23.0306C17.0217 21.9705 15.3817 19.9234 14.7172 19.0156C15.2598 18.8877 16.0036 18.644 16.3877 18.2114ZM19.8261 18.8694C20.9967 18.8328 22.0148 18.4612 22.5147 18.254C22.8927 18.6866 23.6365 18.9425 24.173 19.0765C23.4963 19.9782 21.8319 22.001 19.7956 23.0367L19.8261 18.8694ZM24.6668 18.4246C23.9779 18.2845 23.2463 18.0103 23.0573 17.7484C23.2341 17.1635 23.3987 16.28 23.4841 15.817C24.0632 15.7926 25.3435 15.7256 26.4043 15.5367C26.069 16.2922 25.4472 17.5534 24.6668 18.4246ZM27.1115 14.4035C26.825 13.8857 26.3007 12.9535 25.5996 11.8324C26.1605 11.4669 26.7214 11.1623 27.0932 10.9795C27.3737 11.1074 28.0565 11.4547 28.8308 12.0944C28.4162 12.8743 27.8431 13.6419 27.1054 14.4096L27.1115 14.4035ZM29.4039 12.6001C29.7636 12.9474 30.1233 13.3617 30.4586 13.843C30.1964 14.3731 29.9891 15.1346 29.8855 15.5794C29.3856 15.4819 28.4223 15.2687 27.648 14.9214C28.3857 14.1598 28.971 13.3861 29.4039 12.6001ZM30.9829 13.2947C30.5866 12.7463 30.1659 12.2894 29.7514 11.9056C30.1172 11.077 30.3244 10.2362 30.361 9.38932C30.7573 9.88282 31.2755 10.5652 31.7754 11.3329C31.9644 11.6192 32.1351 11.8995 32.2936 12.1736C32.0193 12.4722 31.495 12.9108 30.9768 13.3008L30.9829 13.2947ZM26.636 7.73213C26.5385 7.22645 26.319 6.28819 25.8922 5.71548C26.13 5.44741 26.6482 4.95391 27.6115 4.47869C28.0382 4.91126 29.1173 6.16024 29.4953 7.90272C28.8125 7.83571 27.5749 7.72604 26.636 7.73822V7.73213ZM25.3009 5.26463C24.8131 5.0392 23.7889 4.65537 22.6366 4.72239C22.0514 2.86415 21.1308 1.54815 20.5211 0.817035C22.6976 1.12776 25.7825 3.1505 26.9713 3.97909C26.0751 4.47259 25.5569 4.96609 25.3009 5.26463ZM16.4364 4.68583C15.2842 4.60054 14.2538 4.97828 13.7661 5.19152C13.5162 4.89298 13.0101 4.39339 12.1261 3.8877C13.3394 3.09567 16.4364 1.18868 18.619 0.896239C17.9789 1.60298 17.0339 2.86415 16.4364 4.68583ZM11.4616 4.37511C12.4188 4.86252 12.9309 5.36211 13.1626 5.63628C12.7297 6.20289 12.4919 7.14115 12.3944 7.64074C11.4555 7.62246 10.2179 7.71385 9.53509 7.76869C9.93137 6.0323 11.0288 4.80159 11.4616 4.36902V4.37511ZM11.7177 15.4454C11.9798 16.1034 12.5712 17.4376 13.382 18.5038C11.9006 18.644 10.7361 17.9921 10.5654 17.8885C10.2362 17.5839 9.5168 16.8223 9.23636 16.1765C9.81554 16.0729 10.8641 15.8414 11.7238 15.4515L11.7177 15.4454ZM10.4313 18.6623C10.9983 18.9547 12.3212 19.4787 13.9124 19.1801C14.3209 19.7711 15.5524 21.4588 17.2534 22.7626C13.6259 21.8548 11.0714 20.6545 9.29123 19.4969C9.65703 19.2959 10.1082 19.0034 10.4313 18.6623ZM24.9655 19.2532C26.5567 19.5761 27.8797 19.0644 28.4528 18.7841C28.7698 19.1375 29.2271 19.436 29.5928 19.6432C27.8675 20.7215 25.3009 21.9157 21.5758 22.7991C23.289 21.5136 24.551 19.8442 24.9655 19.2593V19.2532ZM28.3309 18.0042C28.1541 18.1078 26.9957 18.7475 25.5081 18.583C26.3251 17.5351 26.9347 16.2008 27.2091 15.5489C28.0626 15.951 29.1112 16.1947 29.6843 16.3044C29.3978 16.9502 28.6601 17.7057 28.3309 18.0042ZM32.8301 11.6192C32.0132 10.2423 31.0438 9.03595 30.55 8.45106C31.6474 7.96974 32.9338 7.90882 33.4825 7.90882C33.7751 8.47543 33.9824 9.12124 34.019 9.84626C33.7629 10.4068 33.2691 11.2658 32.824 11.6192H32.8301ZM30.2269 7.78087C29.8977 6.20898 29.0685 5.02093 28.4955 4.35683C29.855 4.46041 31.3365 5.48396 31.3548 5.49615C31.373 5.50833 32.2753 6.1115 33.0252 7.17161C32.3119 7.20817 31.2084 7.33611 30.2147 7.78087H30.2269ZM31.4828 4.68583C30.8183 4.27763 29.1783 3.3942 27.77 3.63791C27.2518 3.26017 25.3862 1.94417 23.3987 1.012C26.7762 1.46285 29.8916 2.47422 32.4521 3.96691C32.1412 4.1375 31.7571 4.3812 31.4828 4.67974V4.68583ZM11.3153 3.53433C9.90699 3.27235 8.26701 4.12531 7.59029 4.52743C7.32813 4.2228 6.96234 3.96081 6.6758 3.77804C9.30952 2.29144 12.5224 1.31663 15.9792 0.932794C13.882 1.81622 11.864 3.16268 11.3153 3.53433ZM7.68783 5.34383C7.70612 5.33165 9.19978 4.32637 10.5593 4.24107C9.98015 4.89907 9.13272 6.08104 8.78522 7.64684C7.79757 7.19598 6.70018 7.04976 5.98688 7.00102C6.74896 5.95309 7.66344 5.35602 7.67564 5.34993L7.68783 5.34383ZM4.23717 9.55382C3.65189 10.1082 3.1032 10.6566 2.61547 11.1988C2.37771 10.2606 2.396 8.5851 2.44477 7.65293C2.52403 7.65293 2.60938 7.64074 2.68863 7.63465C3.34097 7.592 4.01159 7.54326 4.74318 7.64074C4.48103 8.20126 4.29203 8.84098 4.23717 9.54773V9.55382ZM2.90811 11.9848C3.37755 11.4547 3.90795 10.9064 4.47493 10.3519C4.73709 10.882 5.20652 11.6862 5.76741 12.0883C5.2492 13.0205 4.84682 14.0014 4.73709 14.8909C4.11523 14.2086 3.22513 13.0814 2.90811 11.9848ZM8.4621 16.2557C8.71815 17.0233 9.43145 17.8154 9.82773 18.2114C9.49242 18.5465 8.94373 18.8511 8.59013 19.0217C7.0233 17.8885 6.18807 16.8527 5.7796 16.2435C6.75505 16.2983 7.9195 16.274 8.456 16.2557H8.4621ZM14.9367 22.8905C11.7664 22.3909 8.84618 21.3856 6.42584 19.9417C6.59045 19.9478 6.76725 19.9539 6.94405 19.9539C7.45616 19.9539 7.98047 19.9295 8.43161 19.8503C9.94357 20.8921 12.0408 21.9766 14.9367 22.8844V22.8905ZM30.4281 19.9965C30.9219 20.0879 31.5072 20.1245 32.0498 20.1306C32.1717 20.1306 32.2936 20.1306 32.4095 20.1306C29.9769 21.5319 27.0506 22.4945 23.8864 22.9514C26.7884 22.0802 28.9039 21.0201 30.4281 19.9965ZM30.294 19.1679C29.9464 18.9973 29.3917 18.6805 29.0563 18.3333C29.4587 17.9433 30.1781 17.1574 30.4464 16.3958C30.989 16.4202 32.1473 16.4567 33.1289 16.4141C32.7753 16.9441 32.0863 17.7971 30.8731 18.7415C30.6963 18.8816 30.5012 19.0217 30.294 19.1679ZM34.1897 15.0798C34.086 14.1903 33.6958 13.2094 33.1959 12.265C33.7568 11.869 34.2384 11.0709 34.5067 10.5469C35.0737 11.1074 35.5919 11.6558 36.0552 12.198C35.726 13.2886 34.8176 14.4035 34.1897 15.0798ZM36.61 12.8621C37.2623 13.6785 37.6038 14.239 37.7501 14.4888C37.4818 15.2017 37.0977 15.8962 36.6039 16.5603C35.9638 16.4202 35.0493 16.0851 34.4762 15.8657C35.0615 15.2687 36.0918 14.105 36.61 12.8621ZM38.0305 13.5384C37.7806 13.1667 37.427 12.6732 36.9209 12.0701C37.2745 11.2658 37.3294 9.76097 37.3233 8.68258C37.9025 9.77924 38.2073 10.9247 38.2012 12.1005C38.2012 12.5879 38.1403 13.0692 38.0305 13.5445V13.5384ZM36.2198 7.05585C35.5309 7.01321 34.7627 7.00102 33.9092 7.14115C33.3057 6.14806 32.5314 5.45959 32.0985 5.11841C32.3851 4.84424 32.8606 4.58226 33.1898 4.43604C34.4152 5.23417 35.4273 6.11759 36.2198 7.05585ZM5.93202 4.2167C6.18197 4.34465 6.66361 4.63709 6.95624 4.94781C6.51729 5.28291 5.73083 5.96528 5.11507 6.95228C4.24936 6.79996 3.4629 6.83652 2.76179 6.88526C3.58483 5.91654 4.64564 5.02093 5.93202 4.21061V4.2167ZM1.66441 8.48152C1.64612 9.54773 1.69489 11.0404 2.0424 11.8446C1.53638 12.4417 1.17059 12.9291 0.914529 13.3008C0.816984 12.8255 0.762114 12.3442 0.762114 11.8568C0.768211 10.6931 1.07914 9.55991 1.66441 8.48152ZM2.77399 16.9441C3.52996 16.7675 4.45055 16.4506 4.92608 16.28C5.21872 16.8162 5.9564 17.9372 7.54761 19.2045C6.55387 19.2532 5.44429 19.1375 5.13946 19.107C4.20668 18.4307 3.41413 17.7057 2.77399 16.9441ZM33.6837 19.3202C33.4215 19.3446 32.3119 19.4299 31.3121 19.3568C32.9155 18.1139 33.6715 17.0051 33.9763 16.4689C34.4457 16.6517 35.3358 16.9929 36.0857 17.1939C35.4273 17.9433 34.6225 18.6562 33.6837 19.3142V19.3202Z" fill="currentColor"/>
</svg>
